<svg aria-hidden="true" style="position:absolute;width:0;height:0;overflow:hidden" xmlns="http://www.w3.org/2000/svg"><defs><symbol id="icon-email2" viewBox="0 0 32 32"><path d="M26.687 5.337H5.337a2.665 2.665 0 0 0-2.655 2.669l-.014 16.012a2.677 2.677 0 0 0 2.669 2.669h21.35a2.677 2.677 0 0 0 2.669-2.669V8.006a2.677 2.677 0 0 0-2.669-2.669zm-.533 5.672-9.433 5.896a1.347 1.347 0 0 1-1.422-.003l.006.003-9.433-5.896A1.133 1.133 0 1 1 7.077 9.09l-.004-.003 8.94 5.59 8.94-5.592a1.133 1.133 0 1 1 1.206 1.918l-.005.003z"/></symbol><symbol id="icon-phone2" viewBox="0 0 32 32"><path d="m24.901 19.79-3.27-.374a2.554 2.554 0 0 0-2.112.733l-2.37 2.37c-3.672-1.895-6.59-4.814-8.434-8.378l-.051-.108 2.384-2.379a2.554 2.554 0 0 0 .732-2.124l.001.012-.374-3.245A2.58 2.58 0 0 0 8.848 4.02h-2.23c-1.455 0-2.665 1.21-2.576 2.663.683 10.995 9.478 19.777 20.46 20.46 1.454.089 2.665-1.121 2.665-2.576v-2.239a2.551 2.551 0 0 0-2.255-2.534l-.012-.001z"/></symbol><symbol id="icon-person2" viewBox="0 0 32 32"><path d="M16.012 16.012a5.337 5.337 0 0 0 0-10.674 5.337 5.337 0 0 0 0 10.674zm0 2.669c-3.564 0-10.675 1.788-10.675 5.337v1.334c0 .733.6 1.334 1.334 1.334h18.681c.733 0 1.334-.601 1.334-1.334v-1.334c0-3.549-7.113-5.337-10.675-5.337z"/></symbol><symbol id="icon-hand1" viewBox="0 0 28 32"><path d="M24.68 12.008c-.492 0-.953.134-1.351.368a2.676 2.676 0 0 0-2.652-2.37c-.65 0-1.249.236-1.715.628a2.671 2.671 0 0 0-3.635-.93l.013-.007V2.666a2.667 2.667 0 1 0-5.336 0v17.856c0 .334-.22.508-.316.566a.659.659 0 0 1-.652.028l.004.002-4.285-2.141a2.83 2.83 0 0 0-4.091 2.528v.509c0 .184.078.36.212.488l7.699 7.185a8.609 8.609 0 0 0 5.908 2.334h4.192a8.682 8.682 0 0 0 8.674-8.671v-8.674a2.672 2.672 0 0 0-2.67-2.668zm1.335 11.341a7.346 7.346 0 0 1-7.338 7.337h-4.183a7.31 7.31 0 0 1-5.005-1.973L2 21.724v-.22a1.494 1.494 0 0 1 2.168-1.329l-.008-.004 4.283 2.141c.626.314 1.355.28 1.947-.086.574-.356.951-.982.951-1.697V2.666a1.337 1.337 0 0 1 2.668-.004v10.011a.667.667 0 1 0 1.334 0v-.666a1.337 1.337 0 0 1 2.668-.004v.674a.67.67 0 0 0 1.334-.002v-.012a1.337 1.337 0 0 1 2.668.006v2.005a.667.667 0 1 0 1.334 0 1.335 1.335 0 0 1 2.668-.002v8.677z"/></symbol><symbol id="icon-icon_send" viewBox="0 0 32 32"><path fill="#fff" style="fill:var(--color1, #fff)" d="M32.009 0 0 18.005l10.23 3.788L26.008 7.002 14.007 23.193l.009.003-.012-.003v8.816l5.736-6.693 7.269 2.691 5-28.008z"/></symbol><symbol id="icon-icon_check" viewBox="0 0 34 32"><path fill="#2196f3" style="fill:var(--color2, #2196f3)" d="M4.269-.01h25.617a4.269 4.269 0 0 1 4.269 4.269v23.482a4.269 4.269 0 0 1-4.269 4.269H4.269A4.27 4.27 0 0 1 0 27.741V4.259A4.269 4.269 0 0 1 4.269-.01z"/><path fill="#fff" style="fill:var(--color1, #fff);stroke:var(--color1, #fff)" stroke="#fff" stroke-width=".427" d="m8.447 16.538-.147-.141-.147.139-2.058 1.951.162.156 7.61 7.258.147-.141 16.181-15.436-.162-.154-2.03-1.936-.147.141-13.989 13.333-5.42-5.17z"/></symbol><symbol id="icon-Vector1" viewBox="0 0 34 32"><path d="M30.36 3.548v24.904H3.796V3.548H30.36zm0-3.558H3.796C1.708-.01 0 1.591 0 3.549v24.904c0 1.958 1.708 3.559 3.796 3.559H30.36c2.088 0 3.796-1.601 3.796-3.559V3.549c0-1.958-1.708-3.559-3.796-3.559z"/></symbol><symbol id="icon-close4" viewBox="0 0 32 32"><path d="M32.03 3.226 28.804 0 16.015 12.789 3.226 0 0 3.226l12.789 12.789L0 28.804l3.226 3.226 12.789-12.789L28.804 32.03l3.226-3.226-12.789-12.789L32.03 3.226z"/></symbol>
<symbol id="icon-close_24px" viewBox="0 0 32 32">
<path d="M31.451 3.167l-3.167-3.167-12.559 12.557-12.557-12.557-3.167 3.167 12.557 12.557-12.557 12.559 3.167 3.167 12.557-12.559 12.559 12.559 3.167-3.167-12.559-12.559 12.559-12.557z"></path>
</symbol><symbol id="icon-menu_24px" viewBox="0 0 48 32">
<path d="M0 5.341v-5.336h48.014v5.336h-48.014zM0 18.677h48.014v-5.334h-48.014v5.334zM0 32.015h48.014v-5.336h-48.014v5.336z"></path>
</symbol>
</defs></svg>